<svg width="204" height="286" viewBox="0 0 204 286" fill="none" xmlns="http://www.w3.org/2000/svg">
<path fill-rule="evenodd" clip-rule="evenodd" d="M16.98 173.93V175.775L21.1151 184.076L31.223 201.601C31.223 201.601 42.2597 218.508 50.0604 228.812C57.2322 238.285 61.5453 243.381 69.3573 252.333C75.131 258.949 78.4635 262.578 84.5191 268.936C91.0067 275.747 101.519 286 101.519 286H102.438C102.438 286 116.118 272.455 124.491 263.401C131.669 255.64 135.634 251.225 142.41 243.109C146.999 237.611 149.554 234.508 153.896 228.812C161.732 218.535 166.003 212.636 172.733 201.601C178.394 192.32 186.057 177.158 186.057 177.158V175.775H96.4648L97.3837 176.697L126.329 184.076L127.112 184.243L122.012 184.973C122.012 184.973 101.256 186.89 88.1947 188.227C82.0838 188.852 79.3337 189.721 73.2214 190.443C71.1894 190.684 67.5195 191.455 67.5195 191.455V192.378L74.2901 193.726C74.2901 193.726 92.9336 197.313 105.194 200.218C110.785 201.542 119.437 203.907 119.437 203.907C119.437 203.907 123.69 205.169 126.329 206.213C129.465 207.455 131.316 208.056 134.14 209.903C136.701 211.578 138.446 212.408 140.113 214.976C140.77 215.989 141.148 216.586 141.491 217.743C142.054 219.643 141.846 220.867 141.491 222.816C141.072 225.119 140.374 226.331 139.194 228.351C138.413 229.687 136.896 231.579 136.896 231.579C136.896 231.579 130.629 238.322 125.87 241.725C121.177 245.081 112.904 248.799 112.904 248.799C112.904 248.799 119.884 242.468 122.194 237.113C123.164 234.865 123.801 233.556 124.032 231.118C124.288 228.405 124.241 226.68 123.113 224.2C122.679 223.245 121.735 221.894 121.735 221.894C121.735 221.894 119.096 218.906 117.14 217.282C113.489 214.25 110.868 213.301 106.573 211.286C101.227 208.779 97.9611 207.988 92.3298 206.213C84.0265 203.597 79.2227 202.617 70.7356 200.679C62.2139 198.734 59.7187 198.467 48.7901 196.279C47.4496 196.01 43.1687 194.222 43.1687 194.222C43.1687 194.222 41.2493 193.392 41.3309 192.378C41.3829 191.731 42.2498 190.994 42.2498 190.994C42.2498 190.994 43.9055 190.099 45.0065 189.61C50.1865 187.312 59.2494 186.843 59.2494 186.843L86.3569 184.537L97.2643 184.243L107.951 183.615C107.951 183.615 95.5 180.525 89.5731 178.542C81.3034 175.775 76.7105 173.713 68.4384 170.701C62.824 168.658 59.2029 167.781 53.5 166C48.3249 164.384 47.2116 163.91 41.3309 162.625C35.1745 161.279 24.705 159.359 24.705 159.359L22.8941 162.625L16.98 173.93ZM73.0329 165.167C72.8382 165.883 73.205 166.328 73.4923 167.012C74.8382 170.217 81.7624 170.24 81.7624 170.24C81.7624 170.24 142.208 173.551 141.95 170.24C141.693 166.929 141.28 165.046 140.113 161.939C138.636 158.008 137.273 155.946 134.599 152.715C132.978 150.755 131.959 149.727 130.005 148.103C128.318 146.701 125.41 144.874 125.41 144.874C125.41 144.874 122.147 142.965 119.897 142.107C116.967 140.991 115.195 140.658 112.086 140.263C107.277 139.651 104.42 139.697 99.6809 140.724C95.3492 141.662 89.1136 144.874 89.1136 144.874C89.1136 144.874 86.5105 146.446 84.9786 147.642C82.3747 149.675 79.0057 153.637 79.0057 153.637C79.0057 153.637 77.527 155.552 76.7085 156.866C74.8343 159.873 73.7221 162.63 73.0329 165.167ZM110.708 92.7595L86.8164 100.139L62.925 109.824C62.925 109.824 49.8123 116.153 41.7903 120.892C34.9701 124.922 31.1699 127.263 24.7907 131.961C20.1586 135.372 17.5094 137.258 13.3044 141.185C10.5397 143.767 6.55714 148.136 6.55714 148.136L6.87215 149.486L11.9261 164.245L12.845 163.783C12.845 163.783 16.8874 156.176 20.1962 151.792C22.0412 149.348 23.195 148.067 25.2501 145.797C29.2607 141.367 31.7564 139.096 36.2769 135.189C40.2477 131.758 42.6151 129.995 46.8443 126.888C52.5862 122.67 55.9341 120.468 62.0061 116.742C67.6261 113.293 70.8864 111.535 76.7085 108.44C89.6201 101.577 110.708 92.7595 110.708 92.7595ZM154.355 63.2431C154.355 63.2431 152.63 63.0608 151.543 63.156C150.181 63.2753 149.502 63.3803 148.383 64.1655C144.621 66.8032 139.194 71.0834 139.194 71.0834L130.924 68.7774L129.686 68.2621L128.593 66.4385L125.41 66.9326L116.681 63.7043L113.924 64.6267V66.0102L119.437 68.7774L130.924 76.6177L118.518 86.764L113.005 84.9192L110.708 85.3804V86.3028L115.302 89.9924L114.383 91.3759L116.681 91.8371L118.059 97.3715H118.978L120.356 95.9879L119.897 89.5312L134.14 81.2297L138.275 101.061L139.194 101.983L141.491 100.139V90.4536L142.869 89.07V87.6864L141.491 86.764L141.95 83.0744L142.869 82.1521V80.7685L141.95 79.8461V75.6953C141.95 75.6953 147.171 71.5446 150.68 69.2386C152.167 68.2614 152.674 67.715 153.364 66.0738C153.789 65.0641 154.355 63.2431 154.355 63.2431ZM22.4934 39.7222C18.9234 44.34 17.1156 47.1031 14.2233 52.1744C11.831 56.3691 10.6276 58.8108 8.70994 63.2431C7.32945 66.4339 6.5935 68.2462 5.4938 71.5446C3.9053 76.309 3.26294 79.0718 2.27765 83.9968C1.27841 88.9916 0.865602 91.8341 0.439852 96.9103C-0.177325 104.269 -0.115085 108.456 0.439852 115.819C1.09846 124.558 4.11545 137.957 4.11545 137.957L10.5477 132.422L19.7367 125.966C19.7367 125.966 17.4442 116.485 16.98 110.285C16.6304 105.615 16.6456 102.965 16.98 98.2939C17.3311 93.3907 18.8178 85.8416 18.8178 85.8416C18.8178 85.8416 21.314 76.0637 23.8718 70.161C25.7282 65.8768 29.3852 59.5535 29.3852 59.5535C29.3852 59.5535 34.0677 52.2456 37.6553 48.0237C41.1129 43.9547 47.3037 38.3386 47.3037 38.3386L53.736 33.2654C53.736 33.2654 58.9192 29.658 62.4655 27.7311C66.7748 25.3896 73.9518 22.658 73.9518 22.658C73.9518 22.658 79.7799 20.7676 83.6002 19.8908C87.8559 18.9141 90.2815 18.4673 94.627 18.046C100.699 17.4573 110.248 18.046 110.248 18.046C110.248 18.046 114.466 18.4959 117.14 18.9684C120.955 19.6425 123.083 20.1431 126.788 21.2744C130.265 22.3357 135.518 24.5028 135.518 24.5028C135.518 24.5028 140.066 26.6232 142.869 28.1923C147.173 30.6013 149.536 32.0896 153.437 35.1102C156.858 37.7602 158.663 39.4114 161.707 42.4893C164.573 45.3875 168.598 50.3296 168.598 50.3296C168.598 50.3296 172.121 54.9996 174.112 58.1699C176.509 61.9887 177.752 64.214 179.625 68.3162C181.542 72.5133 182.449 74.9604 183.76 79.3849C185.225 84.3289 185.833 87.187 186.517 92.2983C187.473 99.441 186.976 110.746 186.976 110.746C186.976 110.746 186.379 116.971 185.598 120.892C184.574 126.035 181.922 133.806 181.922 133.806C181.922 133.806 178.476 142.486 175.49 147.642C172.387 152.998 170.321 155.85 166.301 160.555C162.833 164.615 156.653 170.24 156.653 170.24H189.274C189.274 170.24 194.21 158.593 196.625 150.87C199.387 142.033 200.687 136.956 202.138 127.81C203.357 120.129 203.874 115.756 203.976 107.979C204.08 100.037 203.884 95.5242 202.598 87.6864C201.911 83.5037 201.392 81.1742 200.3 77.0789C199.229 73.0625 198.542 70.8251 197.084 66.9326C194.853 60.975 193.327 57.7089 190.192 52.1744C187.758 47.8756 186.234 45.5415 183.301 41.5669C181.099 38.5837 179.786 36.9627 177.328 34.1878C172.267 28.4761 169.134 25.462 163.085 20.8132C159.806 18.2927 154.355 14.8177 154.355 14.8177C154.355 14.8177 148.857 11.5286 145.166 9.74453C138.621 6.57995 134.735 5.14524 127.707 3.28781C123.284 2.11869 120.752 1.61642 116.221 0.981836C111.942 0.382429 109.514 0.179333 105.194 0.0594472C98.7275 -0.120034 95.0612 0.0844647 88.6542 0.981836C84.1234 1.61642 77.1679 3.28781 77.1679 3.28781C77.1679 3.28781 70.9366 5.05136 67.06 6.51617C60.1498 9.12728 56.3555 10.9482 50.0604 14.8177C43.9388 18.5806 40.7028 21.0799 35.358 25.8863C29.8729 30.8189 27.0068 33.8841 22.4934 39.7222Z" fill="black"/>
</svg>
